<svg xmlns="http://www.w3.org/2000/svg" viewBox="0 0 495.37 159.46"><defs><style>.cls-1{fill:#fff;}</style></defs><g id="Layer_2" data-name="Layer 2"><g id="Layer_1-2" data-name="Layer 1"><path class="cls-1" d="M419.73,99.33l7.48,12.06c-2.21.21-4.23.07-6.24.1-.7,0-.85-.63-1.13-1.08-2-3.23-4.07-6.45-6-9.74a2.53,2.53,0,0,0-2.62-1.47c-2.27.12-4.54,0-6.81,0-1.84,0-1.64-.2-1.65,1.72v9.13c0,1.39,0,1.39-1.34,1.41h-3.49c-1.14,0-1.14,0-1.17-1.24V82.37c0-.55.18-.84.76-.79h.33c6.92,0,13.84-.08,20.76,0,8.1.13,10,7.91,7.86,12.77a8,8,0,0,1-5.59,4.57C420.52,99,420.08,98.92,419.73,99.33Zm-8.87-5.52h7c2.52,0,3.47-1,3.42-3.6v-.33A2.68,2.68,0,0,0,418.81,87H403.75c-.7,0-1,.21-1,.94,0,1.6.05,3.21,0,4.81,0,.89.3,1.14,1.15,1.12C406.21,93.79,408.54,93.82,410.86,93.81Z"/><path class="cls-1" d="M267,91.27v19.08c0,.84-.21,1.21-1.11,1.17a30.43,30.43,0,0,0-3.82,0c-.94,0-1.1-.37-1.09-1.18V82.93c0-1.33,0-1.36,1.35-1.34s2.8-.4,3.94.16,1.69,2,2.49,3c2.14,2.82,4.24,5.67,6.37,8.5.79,1,.86,1,1.65,0,2.65-3.55,5.31-7.09,7.91-10.67a2.07,2.07,0,0,1,2.06-1c.88.08,1.77,0,2.66,0,1.82,0,1.46.13,1.48,1.57v27.74a.55.55,0,0,1-.49.6.29.29,0,0,1-.13,0h-4.65c-.48,0-.72-.21-.71-.7s0-.77,0-1.16V92.19a1.38,1.38,0,0,0-.21-1.08c-1.27,2.72-3.25,4.86-4.88,7.25a2.28,2.28,0,0,1-2.32,1.19,25.41,25.41,0,0,0-3.49,0,1.69,1.69,0,0,1-1.66-.81C270.61,96.24,268.49,94,267,91.27Z"/><path class="cls-1" d="M327.31,111.5a2,2,0,0,1,.31-1.39l11.16-27.3a1.62,1.62,0,0,1,1.79-1.26q3.24.14,6.47,0a1.68,1.68,0,0,1,1.79,1.26c3.32,8.19,6.69,16.36,10,24.54.54,1.3,1.06,2.62,1.67,4.14h-5.86c-.58,0-.74-.39-.91-.8-.57-1.37-1.19-2.74-1.68-4.14a1.4,1.4,0,0,0-1.59-1.06H337a1.48,1.48,0,0,0-1.69,1.15c-.45,1.31-1.07,2.55-1.55,3.84a1.29,1.29,0,0,1-1.44,1C330.69,111.45,329,111.5,327.31,111.5ZM349.15,100a1,1,0,0,0-.12-.85q-2.28-5.59-4.58-11.19a6.65,6.65,0,0,0-.27-.61c-.26-.44-.58-.52-.85,0a10.82,10.82,0,0,0-.53,1.21c-1.32,3.22-2.65,6.43-4,9.66a3.89,3.89,0,0,0-.54,1.79Z"/><path class="cls-1" d="M477.33,97.92c-2,1.84-4,3.59-5.92,5.3a1.56,1.56,0,0,0-.45,1.34v5.81c0,.85-.23,1.2-1.12,1.16a34.77,34.77,0,0,0-3.82,0c-1,.06-1.08-.38-1.08-1.18V83c0-1.34,0-1.35,1.34-1.36s2.43,0,3.65,0c.83,0,1,.32,1,1.08v13a2.63,2.63,0,0,0,1.41-.94c4.53-4.06,9.07-8.12,13.56-12.22a3.32,3.32,0,0,1,2.52-1,65,65,0,0,1,6.74.3L481.58,94.05l13.79,17.26a10.15,10.15,0,0,1-3.06.16c-1.37,0-2.92.46-4.07-.21s-1.76-1.94-2.59-3C482.94,104.92,480.21,101.49,477.33,97.92Z"/><path class="cls-1" d="M26.23,62.55c.14.22.18.35.26.4,2.88,1.66,4.15,5,3,9A8.2,8.2,0,0,1,22,78H1.21C0,78,0,78,0,76.8V49.3c0-1.19,0-1.22,1.16-1.22,6.3,0,12.61-.07,18.91,0,5.6.08,9.31,4.56,8.54,10.11A7.24,7.24,0,0,1,26.23,62.55ZM13.78,72.63h7.14c2-.06,3-1.25,3-3.39s-1-3.43-3-3.47c-4.7-.07-9.41,0-14.11,0-.63,0-.9.22-.89.86v5.15c0,.76.31.93,1,.92C9.24,72.61,11.51,72.63,13.78,72.63Zm-.59-12.28h6.3c2.1,0,3.17-1.08,3.19-3.32s-.92-3.51-3.15-3.54c-4.2-.06-8.4,0-12.59,0-.73,0-1,.26-1,1v5c0,.86.36,1,1.09,1C9.08,60.33,11.15,60.35,13.19,60.35Z"/><path class="cls-1" d="M194.08,63V49.43c0-1.33,0-1.35,1.36-1.35h26.64c1.34,0,1.34,0,1.35,1.35v3.32c0,.48-.2.72-.69.71H200.92c-.64,0-.88.24-.87.88v4.81c0,1.17,0,1.19,1.18,1.2H216.5c.64,0,.89.22.87.86V65c0,.49-.21.7-.7.69H201.45c-1.33,0-1.34,0-1.35,1.38s0,3,0,4.48c0,.78.21,1.1,1,1.06,1.11-.06,2.21,0,3.32,0h17.66c1.35,0,1.35,0,1.36,1.35v3.32c0,.49-.21.7-.69.69H195.48c-1.36,0-1.37,0-1.37-1.33v-12Z"/><path class="cls-1" d="M155.22,57c0,2.44.05,4.88,0,7.31A14.31,14.31,0,0,1,146,77.71c-8.52,3.09-18.31-1.83-19.35-12.22-.26-2.6-.11-5.21-.13-7.81V49.21c0-.83.21-1.2,1.12-1.15a34.77,34.77,0,0,0,3.82,0c.91,0,1.11.33,1.1,1.15V62.84a13.4,13.4,0,0,0,.44,3.94,8.19,8.19,0,0,0,16-.5,13.22,13.22,0,0,0,.33-3.13V49.36c0-1.26,0-1.27,1.26-1.28h3.32c1.39,0,1.4,0,1.4,1.49V57Z"/><path class="cls-1" d="M67.55,63V49.44c0-1.34,0-1.35,1.36-1.36h3c1.74,0,1.64-.22,1.64,1.56V71c0,1.71-.1,1.59,1.64,1.59H90.08c1.35,0,1.36,0,1.37,1.34v3.32c0,.47-.18.72-.67.7H68.42c-.63.05-.93-.19-.87-.85V63Z"/><polygon class="cls-1" points="208.72 159.46 209.23 159.28 281.68 3.37 273.59 0 208.72 159.46"/></g></g></svg>